<svg xmlns="http://www.w3.org/2000/svg" width="30" height="24" viewBox="0 0 30 24">
    <path fill="#0C9372" fill-rule="nonzero" d="M9.75 16.5c.969 0 1.852.234 2.648.703a5.21 5.21 0 0 1 1.899 1.922c.469.813.703 1.703.703 2.672 0 .594-.219 1.11-.656 1.547A2.17 2.17 0 0 1 12.75 24H2.25a2.17 2.17 0 0 1-1.594-.656C.22 22.906 0 22.39 0 21.797c0-.969.234-1.86.703-2.672a5.21 5.21 0 0 1 1.899-1.922A5.127 5.127 0 0 1 5.25 16.5c.125 0 .234.016.328.047a6.059 6.059 0 0 0 1.922.328c.625 0 1.266-.11 1.922-.328.094-.031.203-.047.328-.047zM7.5 15c-1.25 0-2.313-.437-3.188-1.312S3 11.75 3 10.5c0-1.25.437-2.312 1.312-3.187S6.25 6 7.5 6c1.25 0 2.312.438 3.187 1.313S12 9.25 12 10.5c0 1.25-.438 2.313-1.313 3.188S8.75 15 7.5 15zM27.75 0c.625 0 1.156.227 1.594.68.437.453.656 1.008.656 1.664v14.812c0 .657-.219 1.211-.656 1.664-.438.453-.97.68-1.594.68H16.266a5.587 5.587 0 0 0-1.829-3H18v-3h6v3h3V3H10.5v2.344c-.969-.563-1.969-.844-3-.844V2.344c0-.656.219-1.211.656-1.664C8.594.227 9.125 0 9.75 0h18z"/>
</svg>
