<?xml version="1.0" standalone="no"?><!DOCTYPE svg PUBLIC "-//W3C//DTD SVG 1.1//EN" "http://www.w3.org/Graphics/SVG/1.1/DTD/svg11.dtd"><svg width="100%" height="100%" viewBox="0 0 300 69" version="1.1" xmlns="http://www.w3.org/2000/svg" xmlns:xlink="http://www.w3.org/1999/xlink" xml:space="preserve" style="fill-rule:evenodd;clip-rule:evenodd;stroke-linejoin:round;stroke-miterlimit:1.41421;"><g><g><path d="M125.549,36.829c0,-1.36 0.231,-2.613 0.693,-3.755c0.462,-1.141 1.104,-2.13 1.925,-2.966c0.822,-0.834 1.81,-1.482 2.967,-1.945c1.154,-0.463 2.412,-0.693 3.773,-0.693c1.361,0 2.612,0.23 3.755,0.693c1.143,0.463 2.131,1.111 2.966,1.945c0.833,0.835 1.483,1.824 1.945,2.966c0.463,1.142 0.693,2.395 0.693,3.755c0,1.362 -0.23,2.613 -0.693,3.755c-0.462,1.145 -1.111,2.133 -1.945,2.966c-0.835,0.836 -1.824,1.484 -2.966,1.945c-1.143,0.462 -2.394,0.693 -3.755,0.693c-1.361,0 -2.619,-0.231 -3.773,-0.693c-1.157,-0.461 -2.145,-1.109 -2.967,-1.945c-0.822,-0.833 -1.463,-1.821 -1.925,-2.966c-0.462,-1.142 -0.693,-2.393 -0.693,-3.755ZM127.858,36.829c0,1.002 0.162,1.946 0.483,2.83c0.321,0.888 0.79,1.657 1.406,2.313c0.615,0.653 1.36,1.173 2.233,1.558c0.873,0.386 1.849,0.578 2.928,0.578c1.078,0 2.053,-0.192 2.926,-0.578c0.873,-0.385 1.618,-0.905 2.234,-1.558c0.618,-0.656 1.085,-1.425 1.407,-2.313c0.321,-0.885 0.481,-1.829 0.481,-2.83c0,-1 -0.16,-1.945 -0.481,-2.831c-0.322,-0.885 -0.789,-1.656 -1.407,-2.312c-0.615,-0.654 -1.36,-1.173 -2.234,-1.558c-0.873,-0.386 -1.848,-0.578 -2.926,-0.578c-1.079,0 -2.055,0.192 -2.928,0.578c-0.873,0.385 -1.617,0.904 -2.233,1.558c-0.616,0.656 -1.085,1.427 -1.406,2.312c-0.321,0.886 -0.483,1.831 -0.483,2.831Z" style="fill:#5f6062;fill-rule:nonzero;"/><path d="M148.928,27.933l2.31,0l0,3.119l0.076,0c0.361,-0.617 0.809,-1.149 1.348,-1.598c0.54,-0.45 1.124,-0.821 1.753,-1.118c0.629,-0.295 1.291,-0.513 1.984,-0.655c0.694,-0.141 1.373,-0.211 2.043,-0.211c1.359,0 2.611,0.23 3.755,0.693c1.141,0.463 2.13,1.111 2.966,1.945c0.833,0.835 1.482,1.824 1.944,2.966c0.462,1.142 0.694,2.395 0.694,3.755c0,1.362 -0.232,2.613 -0.694,3.755c-0.462,1.145 -1.11,2.133 -1.944,2.966c-0.836,0.836 -1.825,1.484 -2.966,1.945c-1.143,0.462 -2.396,0.693 -3.755,0.693c-0.67,0 -1.349,-0.07 -2.043,-0.212c-0.693,-0.141 -1.355,-0.358 -1.984,-0.653c-0.629,-0.296 -1.213,-0.668 -1.753,-1.116c-0.539,-0.449 -0.987,-0.983 -1.348,-1.598l-0.077,0l0,11.898l-2.31,0l0,-26.574ZM151.006,36.829c0,1.002 0.193,1.946 0.578,2.83c0.384,0.888 0.911,1.657 1.578,2.313c0.667,0.653 1.451,1.173 2.349,1.558c0.899,0.386 1.874,0.578 2.929,0.578c1.078,0 2.053,-0.192 2.926,-0.578c0.873,-0.385 1.617,-0.905 2.232,-1.558c0.618,-0.656 1.085,-1.425 1.407,-2.313c0.321,-0.885 0.482,-1.829 0.482,-2.83c0,-1 -0.161,-1.945 -0.482,-2.831c-0.322,-0.885 -0.789,-1.656 -1.407,-2.312c-0.614,-0.654 -1.359,-1.173 -2.232,-1.558c-0.873,-0.386 -1.849,-0.578 -2.926,-0.578c-1.055,0 -2.03,0.192 -2.929,0.578c-0.898,0.385 -1.682,0.904 -2.349,1.558c-0.668,0.656 -1.195,1.427 -1.578,2.312c-0.385,0.886 -0.578,1.831 -0.578,2.831Z" style="fill:#5f6062;fill-rule:nonzero;"/><path d="M188.675,42.375c-0.9,1.362 -2.01,2.338 -3.332,2.928c-1.322,0.591 -2.78,0.885 -4.372,0.885c-1.36,0 -2.593,-0.231 -3.697,-0.693c-1.105,-0.461 -2.054,-1.109 -2.849,-1.945c-0.797,-0.833 -1.407,-1.821 -1.83,-2.966c-0.423,-1.141 -0.636,-2.407 -0.636,-3.793c0,-1.334 0.218,-2.57 0.654,-3.698c0.438,-1.13 1.053,-2.112 1.85,-2.948c0.796,-0.833 1.733,-1.488 2.811,-1.963c1.078,-0.475 2.272,-0.713 3.581,-0.713c1.361,0 2.561,0.237 3.602,0.713c1.04,0.475 1.912,1.104 2.619,1.887c0.705,0.783 1.239,1.674 1.599,2.677c0.36,1.001 0.539,2.016 0.539,3.044l0,1.615l-14.945,0c0,0.488 0.096,1.113 0.29,1.868c0.193,0.759 0.545,1.498 1.059,2.216c0.513,0.719 1.201,1.334 2.06,1.847c0.86,0.516 1.971,0.77 3.332,0.77c1.18,0 2.323,-0.282 3.427,-0.846c1.103,-0.564 1.952,-1.335 2.543,-2.312l1.695,1.427ZM186.902,35.326c0,-0.796 -0.161,-1.54 -0.481,-2.233c-0.322,-0.693 -0.757,-1.303 -1.31,-1.83c-0.553,-0.526 -1.206,-0.944 -1.963,-1.251c-0.759,-0.309 -1.56,-0.462 -2.407,-0.462c-1.259,0 -2.306,0.256 -3.141,0.769c-0.834,0.515 -1.495,1.104 -1.983,1.772c-0.487,0.669 -0.835,1.316 -1.04,1.945c-0.206,0.629 -0.309,1.06 -0.309,1.289l12.634,0l0,0.001Z" style="fill:#5f6062;fill-rule:nonzero;"/><path d="M194.375,32.94c0,-0.334 -0.013,-0.738 -0.039,-1.214c-0.025,-0.475 -0.045,-0.955 -0.058,-1.444c-0.013,-0.488 -0.032,-0.944 -0.058,-1.367c-0.026,-0.424 -0.038,-0.751 -0.038,-0.982l2.31,0c0.026,0.668 0.045,1.309 0.058,1.926c0.014,0.617 0.045,1.014 0.097,1.194l0.115,0c0.463,-0.976 1.233,-1.817 2.311,-2.523c1.078,-0.706 2.337,-1.059 3.774,-1.059c1.387,0 2.516,0.219 3.391,0.654c0.871,0.437 1.559,1.008 2.059,1.714c0.502,0.706 0.848,1.522 1.041,2.446c0.191,0.924 0.288,1.875 0.288,2.85l0,10.591l-2.31,0l0,-10.476c0,-0.719 -0.065,-1.418 -0.192,-2.098c-0.129,-0.681 -0.355,-1.291 -0.675,-1.83c-0.322,-0.539 -0.77,-0.969 -1.347,-1.29c-0.578,-0.322 -1.329,-0.482 -2.254,-0.482c-0.847,0 -1.651,0.147 -2.407,0.444c-0.758,0.295 -1.413,0.744 -1.964,1.347c-0.552,0.604 -0.988,1.362 -1.309,2.273c-0.322,0.911 -0.482,1.984 -0.482,3.216l0,8.896l-2.311,0l0,-12.786l0,0Z" style="fill:#5f6062;fill-rule:nonzero;"/><path d="M225.186,32.362c-0.899,-1.258 -2.105,-1.887 -3.619,-1.887c-0.617,0 -1.222,0.153 -1.811,0.461c-0.591,0.308 -0.886,0.809 -0.886,1.501c0,0.564 0.243,0.977 0.731,1.234c0.489,0.256 1.104,0.476 1.849,0.655c0.745,0.18 1.547,0.366 2.409,0.558c0.859,0.193 1.661,0.487 2.406,0.886c0.746,0.398 1.361,0.944 1.849,1.637c0.488,0.694 0.732,1.644 0.732,2.85c0,1.105 -0.238,2.035 -0.713,2.794c-0.475,0.758 -1.091,1.367 -1.849,1.829c-0.757,0.462 -1.611,0.796 -2.56,1.002c-0.951,0.204 -1.899,0.307 -2.851,0.307c-1.438,0 -2.76,-0.205 -3.967,-0.615c-1.207,-0.41 -2.286,-1.156 -3.234,-2.235l3.079,-2.887c0.591,0.668 1.228,1.212 1.908,1.636c0.679,0.424 1.509,0.636 2.484,0.636c0.333,0 0.681,-0.038 1.039,-0.114c0.36,-0.078 0.693,-0.206 1.002,-0.385c0.309,-0.18 0.558,-0.405 0.752,-0.675c0.192,-0.27 0.288,-0.583 0.288,-0.944c0,-0.641 -0.244,-1.116 -0.731,-1.423c-0.489,-0.311 -1.104,-0.561 -1.849,-0.753c-0.745,-0.192 -1.548,-0.372 -2.407,-0.54c-0.861,-0.165 -1.664,-0.435 -2.408,-0.808c-0.744,-0.372 -1.361,-0.892 -1.85,-1.56c-0.487,-0.667 -0.73,-1.592 -0.73,-2.772c0,-1.028 0.212,-1.919 0.635,-2.678c0.422,-0.757 0.982,-1.38 1.675,-1.868c0.693,-0.487 1.488,-0.847 2.388,-1.078c0.898,-0.231 1.811,-0.348 2.735,-0.348c1.234,0 2.452,0.213 3.659,0.637c1.206,0.424 2.182,1.149 2.927,2.175l-3.082,2.772Z" style="fill:#5f6062;fill-rule:nonzero;"/><path d="M230.27,31.167l0,-3.929l3.813,0l0,-5.353l4.622,0l0,5.353l5.082,0l0,3.929l-5.082,0l0,8.09c0,0.924 0.173,1.657 0.52,2.194c0.345,0.54 1.033,0.809 2.06,0.809c0.411,0 0.859,-0.044 1.348,-0.134c0.487,-0.09 0.873,-0.238 1.154,-0.444l0,3.891c-0.486,0.232 -1.083,0.39 -1.79,0.481c-0.707,0.091 -1.328,0.135 -1.868,0.135c-1.233,0 -2.24,-0.135 -3.024,-0.404c-0.784,-0.268 -1.399,-0.68 -1.849,-1.232c-0.448,-0.551 -0.757,-1.239 -0.923,-2.061c-0.168,-0.821 -0.25,-1.773 -0.25,-2.85l0,-8.475l-3.813,0l0,0Z" style="fill:#5f6062;fill-rule:nonzero;"/><path d="M258.963,43.185l-0.113,0c-0.671,1.053 -1.517,1.815 -2.543,2.292c-1.028,0.474 -2.157,0.711 -3.391,0.711c-0.847,0 -1.675,-0.114 -2.484,-0.347c-0.809,-0.23 -1.529,-0.577 -2.156,-1.039c-0.63,-0.461 -1.137,-1.038 -1.521,-1.733c-0.385,-0.694 -0.579,-1.503 -0.579,-2.425c0,-1.002 0.18,-1.857 0.539,-2.562c0.36,-0.706 0.84,-1.297 1.446,-1.773c0.603,-0.474 1.301,-0.852 2.099,-1.137c0.795,-0.281 1.624,-0.493 2.483,-0.636c0.861,-0.139 1.728,-0.23 2.601,-0.267c0.873,-0.04 1.695,-0.059 2.464,-0.059l1.156,0l0,-0.5c0,-1.156 -0.398,-2.023 -1.193,-2.6c-0.798,-0.579 -1.811,-0.867 -3.044,-0.867c-0.976,0 -1.888,0.174 -2.735,0.521c-0.847,0.346 -1.578,0.814 -2.193,1.405l-2.429,-2.427c1.029,-1.052 2.229,-1.809 3.603,-2.271c1.374,-0.463 2.793,-0.695 4.255,-0.695c1.309,0 2.415,0.149 3.312,0.443c0.901,0.297 1.644,0.675 2.234,1.137c0.59,0.462 1.047,0.996 1.369,1.598c0.319,0.604 0.55,1.213 0.692,1.83c0.141,0.616 0.225,1.213 0.25,1.791c0.026,0.577 0.039,1.084 0.039,1.521l0,10.629l-4.16,0l0,-2.54l-0.001,0ZM258.693,37.447l-0.962,0c-0.642,0 -1.36,0.025 -2.158,0.077c-0.796,0.051 -1.547,0.174 -2.252,0.364c-0.706,0.194 -1.304,0.476 -1.791,0.848c-0.49,0.374 -0.733,0.892 -0.733,1.56c0,0.437 0.097,0.801 0.29,1.098c0.192,0.296 0.443,0.546 0.75,0.751c0.308,0.203 0.656,0.353 1.041,0.443c0.386,0.09 0.77,0.135 1.154,0.135c1.592,0 2.768,-0.378 3.526,-1.137c0.756,-0.756 1.135,-1.792 1.135,-3.102l0,-1.037Z" style="fill:#5f6062;fill-rule:nonzero;"/><path d="M272.868,35.79l-6.394,-8.552l5.622,0l3.699,5.548l4.005,-5.548l5.276,0l-6.316,8.552l7.434,9.935l-5.624,0l-4.814,-6.623l-4.854,6.623l-5.469,0l7.435,-9.935Z" style="fill:#5f6062;fill-rule:nonzero;"/></g><path d="M289.918,28.064l-1.631,0l0,-0.826l4.086,0l0,0.826l-1.63,0l0,4.342l-0.826,0l0,-4.342l0.001,0ZM293.418,27.238l1.318,0l1.54,3.926l1.545,-3.926l1.277,0l0,5.168l-0.828,0l0,-4.342l-0.021,0l-1.708,4.342l-0.563,0l-1.707,-4.342l-0.026,0l0,4.342l-0.826,0l0,-5.168l-0.001,0Z" style="fill:#5f6163;fill-rule:nonzero;"/></g><g><path d="M108.856,15.051c-0.092,1.963 -1.756,3.484 -3.723,3.387l-83.052,-3.942c-1.96,-0.099 -3.473,-1.769 -3.379,-3.728l0.352,-7.375c0.087,-1.965 1.759,-3.483 3.716,-3.389l83.051,3.945c1.961,0.097 3.48,1.765 3.389,3.73l-0.354,7.372Z" style="fill:#79b142;fill-rule:nonzero;"/><path d="M81.564,42.039c0,1.185 -0.959,2.139 -2.138,2.139l-67.547,0c-1.176,0 -2.134,-0.953 -2.134,-2.139l0,-10.56c0,-1.176 0.957,-2.13 2.134,-2.13l67.547,0c1.179,0 2.138,0.954 2.138,2.13l0,10.56Z" style="fill:#5f6062;fill-rule:nonzero;"/><path d="M102.332,53.464c0.038,1.175 -0.853,2.164 -1.996,2.204l-76.206,2.376c-1.137,0.032 -2.094,-0.898 -2.131,-2.073l-0.198,-6.273c-0.038,-1.179 0.861,-2.162 2.004,-2.202l76.204,-2.376c1.141,-0.038 2.095,0.894 2.131,2.069l0.192,6.275Z" style="fill:#f5d019;fill-rule:nonzero;"/><path d="M92.099,66.213c-0.001,1.179 -0.9,2.139 -2.006,2.139l-72.746,0c-1.104,0 -2.003,-0.96 -2.003,-2.139l0,-4.191c0,-1.175 0.899,-2.135 2.003,-2.135l72.746,0c1.106,0 2.005,0.959 2.005,2.135l0.001,4.191Z" style="fill:#232e66;fill-rule:nonzero;"/><path d="M93.975,24.261c0,0.867 -1.296,1.578 -2.883,1.578l-88.215,0c-1.586,0 -2.877,-0.711 -2.877,-1.578l0,-3.418c0,-0.869 1.291,-1.576 2.877,-1.576l88.215,0c1.587,0 2.883,0.707 2.883,1.576l0,3.418Z" style="fill:#f47842;fill-rule:nonzero;"/></g></svg>