<svg xmlns="http://www.w3.org/2000/svg" width="24" height="24" viewBox="0 0 24 24">
    <path fill="#007297" fill-rule="nonzero" d="M5.11 11.438L.421 6.75A1.431 1.431 0 0 1 0 5.695c0-.422.14-.773.422-1.054L4.64.42A1.431 1.431 0 0 1 5.695 0c.422 0 .774.14 1.055.422l1.594 1.594-2.907 2.906a.294.294 0 0 0-.14.258c0 .11.047.195.14.258l.516.515a.348.348 0 0 0 .258.094c.11 0 .195-.031.258-.094l2.906-2.906 2.062 2.062-6.328 6.329zm18.234-5.485L21.187 8.11l-5.296-5.296L18.047.656A2.17 2.17 0 0 1 19.64 0a2.17 2.17 0 0 1 1.593.656l2.11 2.11c.437.437.656.968.656 1.593a2.17 2.17 0 0 1-.656 1.594zm-8.532-2.062l5.297 5.297L6.187 23.109 1.172 24a.952.952 0 0 1-.89-.281.952.952 0 0 1-.282-.89l.89-5.016L14.813 3.89zm8.766 13.359c.281.281.422.633.422 1.055 0 .422-.14.773-.422 1.054l-4.219 4.22a1.431 1.431 0 0 1-1.054.421c-.422 0-.774-.14-1.055-.422l-4.688-4.734 6.329-6.281 2.062 2.062-2.906 2.906a.348.348 0 0 0-.094.258c0 .11.031.195.094.258l.515.516c.063.093.149.14.258.14.11 0 .196-.047.258-.14l2.906-2.907 1.594 1.594z"/>
</svg>
